<?xml version="1.0" standalone="no"?>
<!DOCTYPE svg PUBLIC "-//W3C//DTD SVG 20010904//EN"
 "http://www.w3.org/TR/2001/REC-SVG-20010904/DTD/svg10.dtd">
<svg version="1.0" xmlns="http://www.w3.org/2000/svg"
 width="256.000000pt" height="256.000000pt" viewBox="0 0 256.000000 256.000000"
 preserveAspectRatio="xMidYMid meet">
<metadata>
Created by potrace 1.11, written by Peter Selinger 2001-2013
</metadata>
<g transform="translate(0.000000,256.000000) scale(0.100000,-0.100000)"
fill="#000000" stroke="none">
<path d="M0 2549 c0 -5 5 -7 10 -4 5 3 10 8 10 11 0 2 -4 4 -10 4 -5 0 -10 -5
-10 -11z"/>
<path d="M2545 2550 c3 -5 8 -10 11 -10 2 0 4 5 4 10 0 6 -5 10 -11 10 -5 0
-7 -4 -4 -10z"/>
<path d="M496 1744 c-26 -132 -49 -247 -52 -256 -5 -15 2 -18 39 -18 64 0 189
-25 243 -50 45 -19 63 -20 588 -19 l541 1 -185 34 c-102 18 -230 40 -284 48
-155 24 -180 40 -406 262 -128 126 -211 199 -236 210 -21 9 -75 19 -120 22
l-81 5 -47 -239z"/>
<path d="M330 1416 c0 -35 -1 -36 -40 -36 -48 0 -60 -18 -60 -89 0 -48 -2 -51
-26 -51 -38 0 -114 -21 -114 -31 0 -13 34 -25 93 -33 l47 -7 0 -44 c0 -24 4
-55 10 -69 8 -22 16 -26 50 -26 39 0 40 -1 40 -35 l0 -35 108 0 c117 0 214 17
283 49 43 20 62 21 689 24 l645 3 125 28 c204 44 311 108 280 166 -23 43 -124
85 -296 122 -94 20 -134 22 -754 28 l-655 6 -75 29 c-65 24 -93 29 -212 33
l-138 5 0 -37z m1799 -130 c37 -59 20 -164 -31 -200 -17 -12 -26 -12 -64 2
l-44 16 24 26 c45 48 45 108 0 153 l-25 25 43 15 c51 17 68 10 97 -37z"/>
<path d="M730 993 c-57 -25 -130 -42 -213 -49 -65 -6 -77 -10 -73 -23 3 -9 26
-123 52 -255 l47 -239 81 6 c45 3 99 13 121 22 26 11 108 85 237 212 213 210
252 236 366 253 76 11 464 80 477 85 6 2 -231 3 -525 3 -461 0 -540 -2 -570
-15z"/>
<path d="M2545 10 c-3 -5 -1 -10 4 -10 6 0 11 5 11 10 0 6 -2 10 -4 10 -3 0
-8 -4 -11 -10z"/>
</g>
</svg>
